<svg width="247" height="60" viewBox="0 0 247 60" fill="none" xmlns="http://www.w3.org/2000/svg">
<path d="M12.4 44.28C10.4533 44.28 8.69333 43.9467 7.12 43.28C5.57333 42.6133 4.34667 41.6533 3.44 40.4C2.53333 39.1467 2.06667 37.6667 2.04 35.96H8.04C8.12 37.1067 8.52 38.0133 9.24 38.68C9.98667 39.3467 11 39.68 12.28 39.68C13.5867 39.68 14.6133 39.3733 15.36 38.76C16.1067 38.12 16.48 37.2933 16.48 36.28C16.48 35.4533 16.2267 34.7733 15.72 34.24C15.2133 33.7067 14.5733 33.2933 13.8 33C13.0533 32.68 12.0133 32.3333 10.68 31.96C8.86667 31.4267 7.38667 30.9067 6.24 30.4C5.12 29.8667 4.14667 29.08 3.32 28.04C2.52 26.9733 2.12 25.56 2.12 23.8C2.12 22.1467 2.53333 20.7067 3.36 19.48C4.18667 18.2533 5.34667 17.32 6.84 16.68C8.33333 16.0133 10.04 15.68 11.96 15.68C14.84 15.68 17.1733 16.3867 18.96 17.8C20.7733 19.1867 21.7733 21.1333 21.96 23.64H15.8C15.7467 22.68 15.3333 21.8933 14.56 21.28C13.8133 20.64 12.8133 20.32 11.56 20.32C10.4667 20.32 9.58667 20.6 8.92 21.16C8.28 21.72 7.96 22.5333 7.96 23.6C7.96 24.3467 8.2 24.9733 8.68 25.48C9.18667 25.96 9.8 26.36 10.52 26.68C11.2667 26.9733 12.3067 27.32 13.64 27.72C15.4533 28.2533 16.9333 28.7867 18.08 29.32C19.2267 29.8533 20.2133 30.6533 21.04 31.72C21.8667 32.7867 22.28 34.1867 22.28 35.92C22.28 37.4133 21.8933 38.8 21.12 40.08C20.3467 41.36 19.2133 42.3867 17.72 43.16C16.2267 43.9067 14.4533 44.28 12.4 44.28ZM40.255 44L32.735 34.56V44H27.135V14.4H32.735V31.24L40.175 21.84H47.455L37.695 32.96L47.535 44H40.255ZM49.0544 32.84C49.0544 30.6 49.4944 28.6133 50.3744 26.88C51.281 25.1467 52.4944 23.8133 54.0144 22.88C55.561 21.9467 57.281 21.48 59.1744 21.48C60.8277 21.48 62.2677 21.8133 63.4944 22.48C64.7477 23.1467 65.7477 23.9867 66.4944 25V21.84H72.1344V44H66.4944V40.76C65.7744 41.8 64.7744 42.6667 63.4944 43.36C62.241 44.0267 60.7877 44.36 59.1344 44.36C57.2677 44.36 55.561 43.88 54.0144 42.92C52.4944 41.96 51.281 40.6133 50.3744 38.88C49.4944 37.12 49.0544 35.1067 49.0544 32.84ZM66.4944 32.92C66.4944 31.56 66.2277 30.4 65.6944 29.44C65.161 28.4533 64.441 27.7067 63.5344 27.2C62.6277 26.6667 61.6544 26.4 60.6144 26.4C59.5744 26.4 58.6144 26.6533 57.7344 27.16C56.8544 27.6667 56.1344 28.4133 55.5744 29.4C55.041 30.36 54.7744 31.5067 54.7744 32.84C54.7744 34.1733 55.041 35.3467 55.5744 36.36C56.1344 37.3467 56.8544 38.1067 57.7344 38.64C58.641 39.1733 59.601 39.44 60.6144 39.44C61.6544 39.44 62.6277 39.1867 63.5344 38.68C64.441 38.1467 65.161 37.4 65.6944 36.44C66.2277 35.4533 66.4944 34.28 66.4944 32.92ZM84.1238 26.44V37.16C84.1238 37.9067 84.2971 38.4533 84.6438 38.8C85.0171 39.12 85.6304 39.28 86.4838 39.28H89.0838V44H85.5638C80.8438 44 78.4838 41.7067 78.4838 37.12V26.44H75.8438V21.84H78.4838V16.36H84.1238V21.84H89.0838V26.44H84.1238ZM113.712 32.44C113.712 33.24 113.658 33.96 113.552 34.6H97.3516C97.4849 36.2 98.0449 37.4533 99.0316 38.36C100.018 39.2667 101.232 39.72 102.672 39.72C104.752 39.72 106.232 38.8267 107.112 37.04H113.152C112.512 39.1733 111.285 40.9333 109.472 42.32C107.658 43.68 105.432 44.36 102.792 44.36C100.658 44.36 98.7382 43.8933 97.0316 42.96C95.3516 42 94.0316 40.6533 93.0716 38.92C92.1382 37.1867 91.6716 35.1867 91.6716 32.92C91.6716 30.6267 92.1382 28.6133 93.0716 26.88C94.0049 25.1467 95.3116 23.8133 96.9916 22.88C98.6716 21.9467 100.605 21.48 102.792 21.48C104.898 21.48 106.778 21.9333 108.432 22.84C110.112 23.7467 111.405 25.04 112.312 26.72C113.245 28.3733 113.712 30.28 113.712 32.44ZM107.912 30.84C107.885 29.4 107.365 28.2533 106.352 27.4C105.338 26.52 104.098 26.08 102.632 26.08C101.245 26.08 100.072 26.5067 99.1116 27.36C98.1782 28.1867 97.6049 29.3467 97.3916 30.84H107.912ZM123.399 25.08C124.119 24.0133 125.106 23.1467 126.359 22.48C127.639 21.8133 129.092 21.48 130.719 21.48C132.612 21.48 134.319 21.9467 135.839 22.88C137.386 23.8133 138.599 25.1467 139.479 26.88C140.386 28.5867 140.839 30.5733 140.839 32.84C140.839 35.1067 140.386 37.12 139.479 38.88C138.599 40.6133 137.386 41.96 135.839 42.92C134.319 43.88 132.612 44.36 130.719 44.36C129.066 44.36 127.612 44.04 126.359 43.4C125.132 42.7333 124.146 41.88 123.399 40.84V44H117.799V14.4H123.399V25.08ZM135.119 32.84C135.119 31.5067 134.839 30.36 134.279 29.4C133.746 28.4133 133.026 27.6667 132.119 27.16C131.239 26.6533 130.279 26.4 129.239 26.4C128.226 26.4 127.266 26.6667 126.359 27.2C125.479 27.7067 124.759 28.4533 124.199 29.44C123.666 30.4267 123.399 31.5867 123.399 32.92C123.399 34.2533 123.666 35.4133 124.199 36.4C124.759 37.3867 125.479 38.1467 126.359 38.68C127.266 39.1867 128.226 39.44 129.239 39.44C130.279 39.44 131.239 39.1733 132.119 38.64C133.026 38.1067 133.746 37.3467 134.279 36.36C134.839 35.3733 135.119 34.2 135.119 32.84ZM154.748 44.36C152.615 44.36 150.695 43.8933 148.988 42.96C147.282 42 145.935 40.6533 144.948 38.92C143.988 37.1867 143.508 35.1867 143.508 32.92C143.508 30.6533 144.002 28.6533 144.988 26.92C146.002 25.1867 147.375 23.8533 149.108 22.92C150.842 21.96 152.775 21.48 154.908 21.48C157.042 21.48 158.975 21.96 160.708 22.92C162.442 23.8533 163.802 25.1867 164.788 26.92C165.802 28.6533 166.308 30.6533 166.308 32.92C166.308 35.1867 165.788 37.1867 164.748 38.92C163.735 40.6533 162.348 42 160.588 42.96C158.855 43.8933 156.908 44.36 154.748 44.36ZM154.748 39.48C155.762 39.48 156.708 39.24 157.588 38.76C158.495 38.2533 159.215 37.5067 159.748 36.52C160.282 35.5333 160.548 34.3333 160.548 32.92C160.548 30.8133 159.988 29.2 158.868 28.08C157.775 26.9333 156.428 26.36 154.828 26.36C153.228 26.36 151.882 26.9333 150.788 28.08C149.722 29.2 149.188 30.8133 149.188 32.92C149.188 35.0267 149.708 36.6533 150.748 37.8C151.815 38.92 153.148 39.48 154.748 39.48ZM168.976 32.84C168.976 30.6 169.416 28.6133 170.296 26.88C171.203 25.1467 172.416 23.8133 173.936 22.88C175.483 21.9467 177.203 21.48 179.096 21.48C180.75 21.48 182.19 21.8133 183.416 22.48C184.67 23.1467 185.67 23.9867 186.416 25V21.84H192.056V44H186.416V40.76C185.696 41.8 184.696 42.6667 183.416 43.36C182.163 44.0267 180.71 44.36 179.056 44.36C177.19 44.36 175.483 43.88 173.936 42.92C172.416 41.96 171.203 40.6133 170.296 38.88C169.416 37.12 168.976 35.1067 168.976 32.84ZM186.416 32.92C186.416 31.56 186.15 30.4 185.616 29.44C185.083 28.4533 184.363 27.7067 183.456 27.2C182.55 26.6667 181.576 26.4 180.536 26.4C179.496 26.4 178.536 26.6533 177.656 27.16C176.776 27.6667 176.056 28.4133 175.496 29.4C174.963 30.36 174.696 31.5067 174.696 32.84C174.696 34.1733 174.963 35.3467 175.496 36.36C176.056 37.3467 176.776 38.1067 177.656 38.64C178.563 39.1733 179.523 39.44 180.536 39.44C181.576 39.44 182.55 39.1867 183.456 38.68C184.363 38.1467 185.083 37.4 185.616 36.44C186.15 35.4533 186.416 34.28 186.416 32.92ZM203.126 25.28C203.846 24.1067 204.779 23.1867 205.926 22.52C207.099 21.8533 208.432 21.52 209.926 21.52V27.4H208.446C206.686 27.4 205.352 27.8133 204.446 28.64C203.566 29.4667 203.126 30.9067 203.126 32.96V44H197.526V21.84H203.126V25.28ZM212.257 32.84C212.257 30.6 212.697 28.6133 213.577 26.88C214.484 25.1467 215.711 23.8133 217.258 22.88C218.804 21.9467 220.524 21.48 222.418 21.48C223.858 21.48 225.231 21.8 226.538 22.44C227.844 23.0533 228.884 23.88 229.658 24.92V14.4H235.338V44H229.658V40.72C228.964 41.8133 227.991 42.6933 226.738 43.36C225.484 44.0267 224.031 44.36 222.378 44.36C220.511 44.36 218.804 43.88 217.258 42.92C215.711 41.96 214.484 40.6133 213.577 38.88C212.697 37.12 212.257 35.1067 212.257 32.84ZM229.698 32.92C229.698 31.56 229.431 30.4 228.898 29.44C228.364 28.4533 227.644 27.7067 226.738 27.2C225.831 26.6667 224.858 26.4 223.818 26.4C222.778 26.4 221.818 26.6533 220.938 27.16C220.058 27.6667 219.338 28.4133 218.778 29.4C218.244 30.36 217.978 31.5067 217.978 32.84C217.978 34.1733 218.244 35.3467 218.778 36.36C219.338 37.3467 220.058 38.1067 220.938 38.64C221.844 39.1733 222.804 39.44 223.818 39.44C224.858 39.44 225.831 39.1867 226.738 38.68C227.644 38.1467 228.364 37.4 228.898 36.44C229.431 35.4533 229.698 34.28 229.698 32.92Z" fill="black"/>
<path d="M241.24 44.28C240.227 44.28 239.387 43.9733 238.72 43.36C238.08 42.72 237.76 41.9333 237.76 41C237.76 40.0667 238.08 39.2933 238.72 38.68C239.387 38.04 240.227 37.72 241.24 37.72C242.227 37.72 243.04 38.04 243.68 38.68C244.32 39.2933 244.64 40.0667 244.64 41C244.64 41.9333 244.32 42.72 243.68 43.36C243.04 43.9733 242.227 44.28 241.24 44.28Z" fill="#FFC857"/>
</svg>
