<svg width="250" height="60" viewBox="0 0 250 60" fill="none" xmlns="http://www.w3.org/2000/svg">
<path d="M14.12 44.6C11.7733 44.6 9.64 44.2 7.72 43.4C5.82667 42.6 4.30667 41.44 3.16 39.92C2.04 38.3733 1.48 36.48 1.48 34.24H8.6C8.73333 35.7333 9.29333 36.84 10.28 37.56C11.2667 38.28 12.4933 38.64 13.96 38.64C15.4 38.64 16.5867 38.3867 17.52 37.88C18.4533 37.3733 18.92 36.6667 18.92 35.76C18.92 34.9867 18.64 34.4133 18.08 34.04C17.52 33.6667 16.6667 33.3067 15.52 32.96L9.12 31.08C7.86667 30.7067 6.68 30.24 5.56 29.68C4.44 29.0933 3.53333 28.2933 2.84 27.28C2.17333 26.2667 1.84 24.8933 1.84 23.16C1.84 21.16 2.32 19.44 3.28 18C4.24 16.5333 5.6 15.4 7.36 14.6C9.12 13.8 11.1867 13.4 13.56 13.4C17 13.4 19.7867 14.24 21.92 15.92C24.08 17.6 25.32 19.9867 25.64 23.08H18.44C17.88 20.5467 16.16 19.28 13.28 19.28C11.8933 19.28 10.8267 19.5467 10.08 20.08C9.36 20.6133 9 21.3333 9 22.24C9 22.9067 9.22667 23.4667 9.68 23.92C10.1333 24.3733 10.8533 24.7467 11.84 25.04L18.52 27.04C21.08 27.7867 22.9467 28.8133 24.12 30.12C25.2933 31.4267 25.88 33.1333 25.88 35.24C25.88 37.1067 25.3867 38.7467 24.4 40.16C23.44 41.5467 22.08 42.64 20.32 43.44C18.56 44.2133 16.4933 44.6 14.12 44.6ZM29.9791 44V14H36.4591V29.56L43.0991 21.2H50.9791L43.7791 29.76L51.4991 44H44.1391L39.5791 34.8L36.4591 38.48V44H29.9791ZM62.1478 44.6C60.1211 44.6 58.3211 44.08 56.7478 43.04C55.2011 42 53.9878 40.56 53.1078 38.72C52.2278 36.88 51.7878 34.7733 51.7878 32.4C51.7878 30.08 52.2145 28.04 53.0678 26.28C53.9211 24.4933 55.0945 23.1067 56.5878 22.12C58.0811 21.1067 59.8011 20.6 61.7478 20.6C63.2411 20.6 64.5611 20.8933 65.7078 21.48C66.8811 22.04 67.8278 22.8267 68.5478 23.84L68.9078 21.2H74.2678V44H68.9078L68.5478 41C67.8545 42.12 66.9478 43 65.8278 43.64C64.7078 44.28 63.4811 44.6 62.1478 44.6ZM63.3078 38.92C64.8011 38.92 65.9878 38.3333 66.8678 37.16C67.7478 35.9867 68.1878 34.4 68.1878 32.4C68.1878 30.4 67.7478 28.8267 66.8678 27.68C65.9878 26.5067 64.8011 25.92 63.3078 25.92C61.7878 25.92 60.5878 26.5067 59.7078 27.68C58.8278 28.8267 58.3878 30.4 58.3878 32.4C58.3878 34.4 58.8278 35.9867 59.7078 37.16C60.5878 38.3333 61.7878 38.92 63.3078 38.92ZM87.53 44C85.6633 44 84.1567 43.44 83.01 42.32C81.89 41.1733 81.33 39.6667 81.33 37.8V26.4H77.57V21.2H81.33V15.2H87.81V21.2H92.45V26.4H87.81V36.68C87.81 37.1867 87.97 37.6 88.29 37.92C88.61 38.24 89.01 38.4 89.49 38.4H93.13V44H87.53ZM106.314 44.6C103.994 44.6 101.98 44.12 100.274 43.16C98.5671 42.1733 97.2338 40.7867 96.2738 39C95.3404 37.1867 94.8738 35.0533 94.8738 32.6C94.8738 30.1467 95.3404 28.0267 96.2738 26.24C97.2071 24.4533 98.5138 23.0667 100.194 22.08C101.9 21.0933 103.9 20.6 106.194 20.6C108.567 20.6 110.58 21.1333 112.234 22.2C113.914 23.2667 115.167 24.8133 115.994 26.84C116.847 28.8667 117.207 31.3067 117.074 34.16H101.394C101.607 35.8667 102.167 37.2 103.074 38.16C103.98 39.12 105.154 39.6 106.594 39.6C107.767 39.6 108.727 39.32 109.474 38.76C110.22 38.1733 110.687 37.4667 110.874 36.64H116.914C116.647 38.2933 116.02 39.72 115.034 40.92C114.074 42.0933 112.847 43 111.354 43.64C109.86 44.28 108.18 44.6 106.314 44.6ZM106.234 25.56C104.927 25.56 103.847 25.9867 102.994 26.84C102.14 27.6667 101.607 28.7867 101.394 30.2H110.674C110.567 28.52 110.074 27.3333 109.194 26.64C108.314 25.92 107.327 25.56 106.234 25.56ZM120.409 44V14H126.889V23.44C127.635 22.5067 128.542 21.8 129.609 21.32C130.702 20.84 131.875 20.6 133.129 20.6C134.329 20.6 135.542 20.8267 136.769 21.28C137.995 21.7333 139.115 22.4533 140.129 23.44C141.142 24.4 141.955 25.64 142.569 27.16C143.182 28.68 143.489 30.52 143.489 32.68C143.489 35 143.075 37.0667 142.249 38.88C141.422 40.6667 140.262 42.0667 138.769 43.08C137.275 44.0933 135.515 44.6 133.489 44.6C132.049 44.6 130.702 44.2667 129.449 43.6C128.195 42.9067 127.182 41.92 126.409 40.64L125.889 44H120.409ZM131.769 38.92C133.342 38.92 134.582 38.3333 135.489 37.16C136.422 35.9867 136.889 34.4 136.889 32.4C136.889 30.4 136.422 28.8267 135.489 27.68C134.582 26.5067 133.342 25.92 131.769 25.92C130.275 25.92 129.089 26.5067 128.209 27.68C127.329 28.8267 126.889 30.4 126.889 32.4C126.889 34.4 127.329 35.9867 128.209 37.16C129.089 38.3333 130.275 38.92 131.769 38.92ZM157.921 44.6C155.654 44.6 153.641 44.0933 151.881 43.08C150.121 42.0667 148.734 40.6667 147.721 38.88C146.734 37.0667 146.241 35 146.241 32.68C146.241 30.3067 146.734 28.2133 147.721 26.4C148.734 24.5867 150.121 23.1733 151.881 22.16C153.641 21.12 155.654 20.6 157.921 20.6C160.214 20.6 162.228 21.12 163.961 22.16C165.721 23.1733 167.094 24.5867 168.081 26.4C169.094 28.2133 169.601 30.3067 169.601 32.68C169.601 35 169.094 37.0667 168.081 38.88C167.094 40.6667 165.721 42.0667 163.961 43.08C162.228 44.0933 160.214 44.6 157.921 44.6ZM157.921 39C159.414 39 160.628 38.4133 161.561 37.24C162.521 36.0667 163.001 34.5467 163.001 32.68C163.001 30.76 162.521 29.2 161.561 28C160.628 26.8 159.414 26.2 157.921 26.2C156.428 26.2 155.201 26.8 154.241 28C153.308 29.2 152.841 30.76 152.841 32.68C152.841 34.5467 153.308 36.0667 154.241 37.24C155.201 38.4133 156.428 39 157.921 39ZM182.734 44.6C180.707 44.6 178.907 44.08 177.334 43.04C175.787 42 174.574 40.56 173.694 38.72C172.814 36.88 172.374 34.7733 172.374 32.4C172.374 30.08 172.8 28.04 173.654 26.28C174.507 24.4933 175.68 23.1067 177.174 22.12C178.667 21.1067 180.387 20.6 182.334 20.6C183.827 20.6 185.147 20.8933 186.294 21.48C187.467 22.04 188.414 22.8267 189.134 23.84L189.494 21.2H194.854V44H189.494L189.134 41C188.44 42.12 187.534 43 186.414 43.64C185.294 44.28 184.067 44.6 182.734 44.6ZM183.894 38.92C185.387 38.92 186.574 38.3333 187.454 37.16C188.334 35.9867 188.774 34.4 188.774 32.4C188.774 30.4 188.334 28.8267 187.454 27.68C186.574 26.5067 185.387 25.92 183.894 25.92C182.374 25.92 181.174 26.5067 180.294 27.68C179.414 28.8267 178.974 30.4 178.974 32.4C178.974 34.4 179.414 35.9867 180.294 37.16C181.174 38.3333 182.374 38.92 183.894 38.92ZM198.963 44V30.8C198.963 27.52 199.843 25 201.603 23.24C203.39 21.48 205.937 20.6 209.243 20.6C209.59 20.6 210.137 20.6267 210.883 20.68C211.63 20.7067 212.377 20.8 213.123 20.96V26.52C212.617 26.44 212.137 26.3733 211.683 26.32C211.23 26.24 210.723 26.2 210.163 26.2C209.337 26.2 208.563 26.32 207.843 26.56C207.123 26.8 206.537 27.2533 206.083 27.92C205.657 28.5867 205.443 29.56 205.443 30.84V44H198.963ZM225.126 44.6C223.019 44.6 221.153 44.0933 219.526 43.08C217.926 42.04 216.659 40.6133 215.726 38.8C214.819 36.96 214.366 34.8533 214.366 32.48C214.366 30.16 214.793 28.1067 215.646 26.32C216.499 24.5333 217.686 23.1333 219.206 22.12C220.726 21.1067 222.459 20.6 224.406 20.6C225.766 20.6 227.006 20.84 228.126 21.32C229.273 21.8 230.219 22.52 230.966 23.48V14H237.446V44H231.966L231.486 40.88C230.099 43.36 227.979 44.6 225.126 44.6ZM226.086 38.92C227.579 38.92 228.766 38.3333 229.646 37.16C230.526 35.9867 230.966 34.4 230.966 32.4C230.966 30.4 230.526 28.8267 229.646 27.68C228.766 26.5067 227.579 25.92 226.086 25.92C224.513 25.92 223.259 26.5067 222.326 27.68C221.419 28.8267 220.966 30.4 220.966 32.4C220.966 34.4 221.419 35.9867 222.326 37.16C223.259 38.3333 224.513 38.92 226.086 38.92Z" fill="white"/>
<path d="M244.24 44.28C243.227 44.28 242.387 43.9733 241.72 43.36C241.08 42.72 240.76 41.9333 240.76 41C240.76 40.0667 241.08 39.2933 241.72 38.68C242.387 38.04 243.227 37.72 244.24 37.72C245.227 37.72 246.04 38.04 246.68 38.68C247.32 39.2933 247.64 40.0667 247.64 41C247.64 41.9333 247.32 42.72 246.68 43.36C246.04 43.9733 245.227 44.28 244.24 44.28Z" fill="#FFC857"/>
</svg>
