<svg width="21" height="20" viewBox="0 0 21 20" fill="none" xmlns="http://www.w3.org/2000/svg">
<rect width="21" height="19.7647" rx="2" fill="white"/>
<path d="M18.232 7.712C18.144 8.208 17.94 8.628 17.62 8.972C17.3 9.308 16.916 9.532 16.468 9.644C16.884 9.748 17.2 9.948 17.416 10.244C17.64 10.532 17.752 10.872 17.752 11.264C17.752 11.392 17.74 11.528 17.716 11.672C17.588 12.416 17.24 12.992 16.672 13.4C16.112 13.8 15.372 14 14.452 14H10L11.5 5.504H15.832C16.6 5.504 17.196 5.656 17.62 5.96C18.052 6.256 18.268 6.692 18.268 7.268C18.268 7.404 18.256 7.552 18.232 7.712ZM15.424 8.228C15.432 8.188 15.436 8.136 15.436 8.072C15.436 7.912 15.384 7.796 15.28 7.724C15.184 7.652 15.032 7.616 14.824 7.616H13.792L13.576 8.816H14.608C14.848 8.816 15.036 8.768 15.172 8.672C15.308 8.576 15.392 8.428 15.424 8.228ZM15.064 11.276C15.072 11.236 15.076 11.184 15.076 11.12C15.076 10.816 14.872 10.664 14.464 10.664H13.252L13.048 11.864H14.26C14.5 11.864 14.684 11.82 14.812 11.732C14.948 11.636 15.032 11.484 15.064 11.276Z" fill="#101828"/>
<path d="M6.648 14.084C5.608 14.084 4.776 13.876 4.152 13.46C3.536 13.044 3.228 12.436 3.228 11.636C3.228 11.556 3.236 11.436 3.252 11.276H6.084C6.06 11.524 6.096 11.708 6.192 11.828C6.296 11.948 6.464 12.008 6.696 12.008C6.84 12.008 6.96 11.972 7.056 11.9C7.152 11.828 7.2 11.724 7.2 11.588C7.2 11.396 7.104 11.236 6.912 11.108C6.728 10.98 6.428 10.828 6.012 10.652C5.556 10.46 5.18 10.276 4.884 10.1C4.596 9.924 4.344 9.684 4.128 9.38C3.912 9.076 3.804 8.696 3.804 8.24C3.804 7.64 3.952 7.124 4.248 6.692C4.552 6.252 4.972 5.92 5.508 5.696C6.044 5.472 6.656 5.36 7.344 5.36C7.96 5.36 8.508 5.456 8.988 5.648C9.476 5.84 9.856 6.12 10.128 6.488C10.408 6.848 10.548 7.276 10.548 7.772C10.548 7.836 10.54 7.948 10.524 8.108H7.656C7.672 8.012 7.68 7.948 7.68 7.916C7.68 7.764 7.636 7.648 7.548 7.568C7.46 7.48 7.34 7.436 7.188 7.436C7.052 7.436 6.94 7.476 6.852 7.556C6.764 7.636 6.72 7.74 6.72 7.868C6.72 8.044 6.812 8.2 6.996 8.336C7.18 8.464 7.472 8.624 7.872 8.816C8.328 9.032 8.704 9.236 9 9.428C9.304 9.62 9.564 9.876 9.78 10.196C9.996 10.508 10.104 10.892 10.104 11.348C10.104 11.868 9.964 12.336 9.684 12.752C9.412 13.168 9.016 13.496 8.496 13.736C7.976 13.968 7.36 14.084 6.648 14.084Z" fill="#101828"/>
</svg>
